<svg width="415" height="543" viewBox="0 0 415 543" fill="none" xmlns="http://www.w3.org/2000/svg">
<circle cx="207.5" cy="297" r="246" fill="#9AA2FD"/>
<circle cx="207.5" cy="297" r="246" fill="#949DFF"/>
<ellipse cx="201" cy="204" rx="207" ry="204" fill="#9AA2FD"/>
<ellipse cx="201" cy="204" rx="207" ry="204" fill="#99A1FF"/>
<circle cx="207.5" cy="297" r="177" fill="#9AA2FD"/>
<circle cx="207.5" cy="297" r="177" fill="#9EA6FF"/>
<path d="M296.9 106C295.329 97.7727 286.645 93.5733 282.5 92.5021C292.449 89.931 297.118 97.8584 298.209 102.143C309.205 95.973 316.318 100.001 318.5 102.786C310.122 100.215 300.609 103.857 296.9 106Z" fill="#B4BAFF"/>
<path d="M62.3 122C61.34 117.299 56.0333 114.899 53.5 114.287C59.58 112.818 62.4333 117.348 63.1 119.796C69.82 116.27 74.1667 118.572 75.5 120.164C70.38 118.694 64.5667 120.776 62.3 122Z" fill="#B4BAFF"/>
<circle cx="207.5" cy="297" r="142" fill="#A3ABFF"/>
<rect x="-2" y="338" width="416" height="205" fill="#8C96FF"/>
<path d="M67.5835 304.997L-8 337.997H422L348.498 304.997H67.5835Z" fill="#8C96FF"/>
<path d="M181.48 243.637L167.2 266.837L194.59 299.367H222.21L247.96 266.287L232.02 243.637H181.48Z" fill="#3F4553"/>
<path d="M167.2 266.837C167.2 266.837 105.77 271.587 90.3599 287.677C74.9499 303.767 82.1999 321.237 97.2099 321.237C124.84 321.237 183.3 322.927 210.96 321.237L212.61 283.567L167.2 266.837Z" fill="#3F4553"/>
<path d="M246.37 266.037C246.37 266.037 310.7 271.587 326.11 287.677C341.52 303.767 332.64 314.427 319.26 321.237C300.43 330.827 232.56 329.237 197.36 317.587L203.87 283.567L246.37 266.037Z" fill="#3F4553"/>
<path d="M249.2 297.637L244.85 286.397L250.27 283.987C250.27 283.987 249.52 277.337 256.15 276.057C262.78 274.777 270.68 279.057 278.38 275.607C285.48 272.427 294.17 269.497 302.28 273.897C303.48 274.547 304.04 275.977 303.63 277.277L303.6 277.377C303.19 278.687 301.91 279.497 300.54 279.357C297.68 279.067 292.58 279.127 287.54 282.177C278.85 287.457 249.2 297.637 249.2 297.637Z" fill="#FEBBA0"/>
<path d="M299.81 298.277C299.81 298.277 256.88 290.647 166.45 289.467L157.72 301.307C157.72 301.307 180.22 314.167 201.34 318.817C222.46 323.467 295.37 338.107 327.93 315.557L299.81 298.277Z" fill="#3F4553"/>
<path d="M201.34 318.827C179.69 313.827 157.04 301.007 157.04 301.007L158.39 298.717" stroke="#6E758F" stroke-width="1.5925" stroke-miterlimit="10" stroke-linecap="round"/>
<path d="M166.45 289.467C166.45 289.467 265.8 287.197 292.31 302.577" stroke="#6E758F" stroke-width="1.5925" stroke-miterlimit="10" stroke-linecap="round"/>
<path d="M117.68 295.907C117.68 295.907 135.82 287.407 148.22 292.977" stroke="#6E758F" stroke-width="1.5925" stroke-miterlimit="10" stroke-linecap="round"/>
<path d="M159.81 299.347L166.44 289.247L159.81 285.657C159.81 285.657 157.49 279.847 150.99 278.047C144.48 276.257 139.85 279.147 132.44 275.107C125.61 271.377 117.17 267.787 108.75 271.537C107.51 272.087 106.83 273.467 107.14 274.797L107.16 274.897C107.47 276.237 108.68 277.137 110.05 277.107C112.92 277.037 118.01 277.497 122.79 280.937C131.04 286.877 159.81 299.347 159.81 299.347Z" fill="#FEBBA0"/>
<path d="M216.89 289.827L244.05 287.157" stroke="#6E758F" stroke-width="1.5925" stroke-miterlimit="10" stroke-linecap="round"/>
<path d="M182.35 278.057L197.5 289.027" stroke="#6E758F" stroke-width="1.5925" stroke-miterlimit="10" stroke-linecap="round"/>
<path d="M178.44 128.767C179.08 135.027 184.53 139.587 190.61 138.967C196.69 138.347 201.1 132.767 200.46 126.517C199.82 120.257 194.37 115.697 188.29 116.317C182.22 116.927 177.81 122.507 178.44 128.767Z" fill="#3F4553"/>
<path d="M201.15 133.317C201.15 133.317 181.83 130.397 178.79 112.167C176.11 96.0568 186.92 83.1468 198.77 80.9168C198.78 80.9168 227.25 124.797 201.15 133.317Z" fill="#3F4553"/>
<path d="M201.59 82.6468C200.17 83.3468 198.82 84.2668 197.59 85.4568C186.58 96.0468 193.55 116.607 203.41 125.887C208.87 131.017 216.85 133.407 223.82 130.787C234.01 126.957 237.2 115.417 235.13 105.137C233.59 97.4768 229.34 90.2468 223.07 85.7468C216.8 81.2568 208.33 79.3568 201.59 82.6468Z" fill="#FDBCA0"/>
<path d="M199.76 119.687C197.83 121.597 194.47 122.377 191.89 121.467C189.31 120.557 187.19 118.127 186.52 115.307C185.92 112.777 186.57 109.897 188.43 108.347C190.29 106.797 193.64 106.897 195.23 108.907L199.76 119.687Z" fill="#FDBCA0"/>
<path d="M196.94 112.967L198.97 149.307C199.24 156.027 204.69 161.367 211.41 161.497C219.17 161.657 225.26 154.877 224.27 147.177L220.17 113.437L196.94 112.967Z" fill="#FDBCA0"/>
<path d="M222.93 136.217L222.42 131.237C222.42 131.237 212.42 134.307 203.41 125.877C203.41 125.887 208.6 135.357 222.93 136.217Z" fill="#DF8370"/>
<path d="M192.97 107.477C205.99 106.807 217.87 98.0668 224.43 86.8068C224.43 86.8068 212.45 75.4368 194.94 82.0868C180.43 87.5868 192.97 107.477 192.97 107.477Z" fill="#3F4553"/>
<path d="M194.4 115.837C192.9 115.987 191.59 115.177 191.47 114.027C191.38 113.157 191.99 112.347 192.93 111.927" stroke="#444359" stroke-width="1.1144" stroke-miterlimit="10" stroke-linecap="round"/>
<path d="M225.68 112.997C225.98 112.087 226.5 111.367 227.08 110.687L227.36 111.567C226.7 111.317 226.34 110.937 225.97 110.567C225.62 110.177 225.31 109.787 225.03 109.367C224.47 108.537 224 107.657 223.66 106.727C224.36 107.437 225 108.167 225.67 108.867C226.01 109.207 226.33 109.557 226.68 109.857C227.01 110.147 227.4 110.447 227.67 110.517L228.48 110.707L227.95 111.397C227.41 112.107 226.81 112.767 225.98 113.247C225.88 113.307 225.76 113.267 225.7 113.177C225.67 113.107 225.67 113.047 225.68 112.997Z" fill="#444359"/>
<path d="M228.61 116.177C228.21 116.997 227.53 117.707 226.65 118.137C225.78 118.587 224.7 118.677 223.74 118.397C222.76 118.127 222 117.487 221.35 116.827C221.06 116.467 220.77 116.097 220.53 115.717C220.32 115.307 220.1 114.907 219.94 114.487C220.31 114.767 220.63 115.067 220.95 115.367L221.94 116.187C222.64 116.647 223.3 117.147 224.06 117.327C224.79 117.557 225.57 117.547 226.34 117.337C227.1 117.117 227.86 116.687 228.61 116.177Z" fill="#444359"/>
<path d="M218.14 103.107C218.53 104.267 218.75 105.467 218.67 106.757C218.62 107.387 218.47 108.077 218 108.687C217.52 109.307 216.71 109.577 216 109.557C215.27 109.547 214.55 109.227 214.06 108.777C213.55 108.327 213.15 107.807 212.85 107.257C212.25 106.147 211.87 104.987 211.68 103.767C211.65 103.577 211.78 103.397 211.97 103.357C212.15 103.327 212.31 103.437 212.36 103.597L212.37 103.617C212.71 104.697 213.16 105.787 213.74 106.727C214.32 107.637 215.11 108.477 216.04 108.447C216.5 108.467 216.93 108.347 217.19 108.017C217.48 107.697 217.62 107.177 217.7 106.647C217.85 105.577 217.75 104.397 217.57 103.267V103.247C217.54 103.087 217.66 102.927 217.82 102.907C217.95 102.887 218.09 102.977 218.14 103.107Z" fill="#444359"/>
<path d="M232.66 100.837C232.99 101.817 233.17 102.817 233.15 103.887C233.14 104.417 233.04 104.997 232.7 105.547C232.37 106.127 231.63 106.487 230.99 106.457C230.32 106.447 229.71 106.097 229.32 105.687C228.92 105.267 228.61 104.817 228.38 104.337C227.93 103.377 227.65 102.397 227.51 101.367C227.48 101.177 227.62 100.997 227.82 100.967C227.99 100.947 228.15 101.047 228.2 101.207L228.21 101.227C228.5 102.127 228.85 103.047 229.3 103.847C229.75 104.627 230.36 105.377 231.03 105.337C231.37 105.347 231.64 105.247 231.82 104.967C232.02 104.687 232.12 104.257 232.18 103.807C232.28 102.907 232.2 101.917 232.09 100.977V100.957C232.07 100.797 232.19 100.647 232.35 100.617C232.48 100.617 232.62 100.707 232.66 100.837Z" fill="#444359"/>
<path d="M243.46 152.607C243.37 146.507 223.59 141.627 223.59 141.627C222.35 142.997 220.22 145.307 211.25 145.307C202.67 145.307 199.24 143.087 197.9 141.627H189.41C187.52 141.627 185.79 142.707 185 144.427C167.99 181.637 177.55 223.197 181.47 243.627C181.83 245.507 217.33 244.237 233.34 245.507C236.8 245.797 243.8 174.777 243.46 152.607Z" fill="#FEE6C6"/>
<path d="M202.15 205.227C203.91 191.007 206.06 182.477 207.71 185.277C209.17 187.757 208.36 200.197 206.17 212.197C206.18 212.197 201.4 211.317 202.15 205.227Z" fill="#FEBBA0"/>
<path d="M213.77 205.227C212.01 191.007 209.86 182.477 208.21 185.277C206.75 187.757 207.56 200.197 209.75 212.197C209.74 212.197 214.52 211.317 213.77 205.227Z" fill="#FEBBA0"/>
<path d="M272.39 201.697H250.04L253.59 224.397L213.03 204.607C212.89 203.087 212.7 201.207 212.47 199.217C210.94 199.217 209.4 199.217 207.87 199.197C207.88 200.927 207.91 202.097 207.91 202.097C207.91 202.097 207.12 212.537 208.93 216.017C212.37 222.637 247.56 243.957 257.33 246.487C257.94 246.647 258.55 246.767 259.16 246.847C268.59 248.177 274.84 242.887 274.77 233.367L272.39 201.697Z" fill="#FEBBA0"/>
<path d="M203.05 199.117C202.7 201.357 202.39 203.517 202.15 205.227L162.76 223.467L164.42 201.707H142.07L139.7 233.397C139.64 242.917 145.89 248.197 155.31 246.877C155.92 246.787 156.53 246.667 157.14 246.517C166.91 243.987 199.64 226.297 206.63 215.977C208.7 212.927 207.72 202.657 207.72 202.657C207.72 202.657 207.72 201.237 207.68 199.217C206.14 199.187 204.6 199.157 203.05 199.117Z" fill="#FEBBA0"/>
<path d="M170.14 214.117C178.88 188.267 178.81 188.247 189.54 141.637C182.36 142.127 181.62 140.957 175.96 143.897C158.98 152.717 142.99 181.687 138.28 214.117H170.14Z" fill="#FEE6C6"/>
<path d="M247.96 211.567C242.82 193.257 223.59 141.637 223.59 141.637C242.82 140.987 269.06 166.057 275.34 208.217L247.96 211.567Z" fill="#FEE6C6"/>
<path d="M243.47 171.137L239.42 204.417" stroke="#EED2AD" stroke-width="1.5925" stroke-miterlimit="10" stroke-linecap="round"/>
<path d="M173.82 176.597L177.04 212.197" stroke="#EED2AD" stroke-width="1.5925" stroke-miterlimit="10" stroke-linecap="round"/>
<path d="M345.748 143.025C297.749 129.525 304.748 170.025 314.748 170.025C318.857 170.025 327.373 171.025 337.749 171.025H369.249C409.248 171.025 420.749 168.358 421.249 167.525C424.749 141.025 403.582 143.525 392.249 146.525C394.082 136.692 392.149 116.825 369.748 116.025C347.348 115.225 344.415 133.692 345.748 143.025Z" fill="#B4BAFF"/>
<path d="M8.25573 67.7874C-12.7717 61.8992 -9.70541 79.5638 -5.3247 79.5638C-3.5249 79.5638 0.205866 80 4.75144 80H18.5509C36.0738 80 41.1117 78.8369 41.331 78.4734C42.8643 66.9151 33.5916 68.0055 28.6267 69.314C29.4299 65.025 28.5828 56.3599 18.7696 56.011C8.95638 55.662 7.67151 63.7165 8.25573 67.7874Z" fill="#A6ADFB"/>
<circle cx="39.5" cy="45" r="6" fill="#A6ADFB"/>
<circle r="3" transform="matrix(1 0 0 -1 30.5 31)" fill="#A6ADFB"/>
</svg>
